<?xml version="1.0" encoding="utf-8"?>
<!-- Generator: Adobe Illustrator 18.1.1,  SVG Export Plug-In . SVG Version: 6.00 Build 0)  -->
<svg version="1.1" xmlns="http://www.w3.org/2000/svg" xmlns:xlink="http://www.w3.org/1999/xlink" x="0px" y="0px" viewBox="0 0 300 300" enable-background="new 0 0 300 300" xml:space="preserve">

	<defs>
		<style><![CDATA[

            .country_name, .country_value{fill: #42210b;}
            .heading_b{fill: #fff;}
            #infographic_medium{display: none;}
            #infographic_small{display: none;}
            @media screen and (max-width: 800px) {
            #infographic_large{display: none;}
            #infographic_medium{display: block;}
            }
            @media screen and (max-width: 600px) {
            #infographic_large{display: none;}
            #infographic_medium{display: none;}
            #infographic_small{display: block;}
            }

		]]></style>
	</defs>
		 
	<symbol id="art_coffeecup" viewBox="0 -178 99.2 178">
		<polygon fill="#613224" points="3.5, -29 94.8, -29 80.9, -178 18.2, -178"/>
		<path fill="#FFFFFF" d="M95.9-29.6H3.2c-1.8, 0-3.2, 1.5-3.2, 3.2v6.8c0, 1.8, 1.5, 3.2, 3.2, 3.2h92.7c1.8, 0, 3.2-1.5, 3.2-3.2v-6.8 C99.2-28.1, 97.7-29.6, 95.9-29.6z"/>
		<path fill="#FFFFFF" d="M27.9-2.5L12.9, 0c-1.2, 0.2-2.2-0.7-2.2-1.9l0-13.3h77.7v9.7c0, 1.6-1.3, 2.9-2.9, 2.9H27.9z"/>
		<polygon fill="#C18F5E" points="3.3, -58.7 95.7, -58.7 89, -117.5 11.7, -117.5"/>
	</symbol>
	<symbol id="art_person" viewBox="0 -58 20.6 58">
		<path fill="#FFFFFF" d="M16-11H4.6c-3, 0-4.6-1.6-4.6-4.4V-32c0-0.9, 0.8-1.7, 1.7-1.7c0.9, 0, 1.7, 0.8, 1.7, 1.7v13.5h1.1v-37.1 C4.6-56.9, 5.6-58, 7-58c1.3, 0, 2.4, 1.1, 2.4, 2.4v21.6h1.9v-21.6c0-1.3, 1.1-2.4, 2.4-2.4c1.3, 0, 2.4, 1.1, 2.4, 2.4v37.1h1.1V-32 c0-0.9, 0.8-1.7, 1.7-1.7c0.9, 0, 1.7, 0.8, 1.7, 1.7v16.6C20.6-12.7, 19-11, 16-11z"/>
		<path fill="#FFFFFF" d="M10.3-10.2c2.8, 0, 5.1, 2.3, 5.1, 5.1c0, 2.8-2.3, 5.1-5.1, 5.1C7.5, 0, 5.2-2.3, 5.2-5.1C5.2-7.9, 7.5-10.2, 10.3-10.2 z"/>
	</symbol>
	<symbol id="denmark" class="country_name" viewBox="1.1 -18.2 72.4 16.2">
		<path d="M1.1-18V-3h4.5c1.5, 0, 2.8-0.6, 3.8-1.7c1-1.2, 1.5-2.7, 1.5-4.5v-2.5c0-1.8-0.5-3.3-1.5-4.5S7.2-18, 5.6-18 H1.1z M4.1-5.4v-10.3h1.4c0.8, 0, 1.4, 0.4, 1.9, 1.1C7.8-13.9, 8-12.9, 8-11.8v2.5c0, 1.2-0.2, 2.1-0.7, 2.8C6.9-5.7, 6.3-5.4, 5.5-5.4H4.1z"
			/>
		<path d="M17.1-18.2c-1.4, 0-2.5, 0.5-3.3, 1.4s-1.2, 2.1-1.2, 3.5v1.6c0, 1.5, 0.4, 2.7, 1.1, 3.7c0.8, 1, 1.8, 1.4, 3.2, 1.4 c1.3, 0, 2.3-0.4, 3-1.3c0.7-0.9, 1.1-2.1, 1.1-3.5v-1.8h-5.5v0c0-0.7, 0.2-1.3, 0.5-1.8c0.3-0.5, 0.8-0.7, 1.5-0.7c0.5, 0, 1, 0.1, 1.3, 0.2 s0.7, 0.3, 1.2, 0.6l0.7-1.9c-0.4-0.4-0.9-0.7-1.5-0.9C18.5-18.1, 17.8-18.2, 17.1-18.2z M16.8-9c-0.5, 0-0.8-0.2-1-0.6 c-0.2-0.4-0.3-1-0.4-1.7H18v0.4c0, 0.6-0.1, 1.1-0.3, 1.4S17.2-9, 16.8-9z"/>
		<path d="M25-6.9l0.1-1.5c0.3, 0.5, 0.7, 1, 1.1, 1.3c0.4, 0.3, 0.9, 0.5, 1.5, 0.5c0.9, 0, 1.6-0.4, 2.2-1.1 c0.5-0.7, 0.8-1.8, 0.8-3.4V-18h-2.9v6.9c0, 0.8-0.1, 1.3-0.3, 1.6c-0.2, 0.3-0.5, 0.5-1, 0.5c-0.3, 0-0.5-0.1-0.7-0.2s-0.4-0.3-0.6-0.6 V-18h-2.9v11.1H25z"/>
		<path d="M35.3-6.9l0.1-1.4c0.3, 0.5, 0.7, 0.9, 1.1, 1.2s1, 0.4, 1.5, 0.4c0.6, 0, 1-0.1, 1.5-0.4c0.4-0.3, 0.7-0.8, 1-1.4 c0.3, 0.6, 0.7, 1, 1.1, 1.3s1, 0.5, 1.6, 0.5c0.9, 0, 1.6-0.4, 2.2-1.1c0.5-0.8, 0.8-1.9, 0.8-3.5V-18h-2.9v6.7c0, 0.9-0.1, 1.4-0.3, 1.8 C42.7-9.2, 42.4-9, 42.1-9c-0.3, 0-0.5-0.1-0.7-0.2s-0.4-0.4-0.5-0.7c0-0.1, 0-0.3, 0-0.4c0-0.1, 0-0.3, 0-0.4V-18h-2.9v6.7 c0, 0.8-0.1, 1.4-0.3, 1.8C37.4-9.2, 37.1-9, 36.7-9c-0.3, 0-0.5-0.1-0.7-0.2c-0.2-0.1-0.4-0.3-0.5-0.6V-18h-2.9v11.1H35.3z"/>
		<path d="M53.4-18c-0.1, 0.2-0.2, 0.4-0.2, 0.6c-0.1, 0.2-0.1, 0.4-0.1, 0.7c-0.3-0.5-0.6-0.8-1-1.1 c-0.4-0.3-0.8-0.4-1.4-0.4c-0.9, 0-1.6, 0.3-2.2, 0.9c-0.6, 0.6-0.8, 1.4-0.8, 2.4c0, 1.1, 0.4, 1.9, 1.1, 2.5c0.7, 0.6, 1.7, 0.9, 3.1, 0.9h1.1 v0.9c0, 0.5-0.1, 1-0.3, 1.2c-0.2, 0.3-0.5, 0.4-0.9, 0.4c-0.3, 0-0.6-0.1-0.7-0.3c-0.2-0.2-0.2-0.6-0.2-1l-2.8, 0l0, 0.1 c0, 1, 0.3, 1.8, 1.1, 2.5c0.7, 0.7, 1.7, 1, 3, 1c1.2, 0, 2.1-0.3, 2.8-1c0.7-0.7, 1.1-1.6, 1.1-2.9V-15c0-0.5, 0-1.1, 0.1-1.5 c0.1-0.5, 0.2-0.9, 0.3-1.4H53.4z M51.5-16c0.3, 0, 0.6, 0.1, 0.8, 0.2c0.2, 0.2, 0.4, 0.4, 0.6, 0.6v2h-1.1c-0.4, 0-0.8-0.2-1-0.5 c-0.2-0.3-0.3-0.7-0.3-1.2c0-0.4, 0.1-0.7, 0.3-0.9C51-15.9, 51.2-16, 51.5-16z"/>
		<path d="M62.9-9.5l-1.1, 0c-0.3, 0-0.6-0.1-0.8-0.2c-0.2-0.2-0.4-0.4-0.5-0.6V-18h-2.9v11.1h2.7l0.1-1.5l0.1, 0
			c0.2, 0.5, 0.4, 1, 0.7, 1.3c0.3, 0.3, 0.7, 0.5, 1.1, 0.5c0.1, 0, 0.3, 0, 0.4, 0c0.1, 0, 0.3-0.1, 0.4-0.1L62.9-9.5z"/>
		<path d="M67.9-13.4h-0.5V-18h-2.9v16h2.9v-9.1h0.5l1.9, 4.2H73l-2.9-5l3.4-6.1h-3.3L67.9-13.4z"/>
	</symbol>
	<symbol id="denmark_value" class="country_value" viewBox="6.3 -26 32.4 21.9">
		<path d="M18.4-10c0-1.1-0.2-2-0.7-2.8c-0.5-0.8-1.1-1.5-2-1.9c1-0.5, 1.7-1.2, 2.3-2.1s0.8-1.9, 0.8-3 c0-2-0.6-3.5-1.7-4.6S14.4-26, 12.6-26S9.2-25.4, 8-24.4s-1.7, 2.6-1.7, 4.5c0, 1.1, 0.3, 2.2, 0.8, 3s1.3, 1.6, 2.3, 2 c-0.8, 0.5-1.5, 1.1-2, 1.9S6.7-11.1, 6.7-10c0, 1.9, 0.5, 3.3, 1.6, 4.4S10.8-4, 12.6-4s3.2-0.5, 4.3-1.6S18.4-8.1, 18.4-10z M14.6-19.5 c0, 1-0.2, 1.7-0.6, 2.3c-0.4, 0.6-0.9, 0.8-1.5, 0.8c-0.6, 0-1.1-0.3-1.5-0.8c-0.4-0.6-0.6-1.3-0.6-2.3c0-1, 0.2-1.7, 0.6-2.3 c0.4-0.6, 0.9-0.8, 1.5-0.8c0.6, 0, 1.1, 0.3, 1.5, 0.8C14.5-21.3, 14.6-20.5, 14.6-19.5z M14.2-10.2c0, 0.9-0.1, 1.6-0.4, 2.1 c-0.3, 0.5-0.7, 0.8-1.3, 0.8s-1-0.2-1.2-0.7c-0.3-0.5-0.4-1.2-0.4-2.1c0-0.9, 0.1-1.6, 0.4-2.1c0.3-0.5, 0.7-0.8, 1.3-0.8s1, 0.3, 1.2, 0.8 S14.2-11.1, 14.2-10.2z"/>
		<path d="M24.5-25.7h-4.1v3.8h4.1V-25.7z"/>
		<path d="M38.8-7.7c-1.9-2.5-3.2-4.8-3.8-7.1c-0.6-2.3-1.1-5.2-1.4-8.8l-0.2-2.1h-4.2l0.2, 2.1 c0.3, 3.2, 0.8, 6.1, 1.7, 8.8c0.9, 2.6, 2.1, 5, 3.7, 7.2h-9v3.3h13V-7.7z"/>
	</symbol>
	<symbol id="finland" class="country_name"  viewBox="1.1 -18.2 58.8 16.2">
		<path d="M9.1-11.8H4.1V-18H1.1V-3H10v-2.3h-6v-4.1h5.1V-11.8z"/>
		<path d="M14.4-4.2h-2.9V-2h2.9V-4.2z M14.4-18h-2.9v11.1h2.9V-18z"/>
		<path d="M19.1-6.9l0.1-1.5c0.3, 0.5, 0.7, 1, 1.1, 1.3c0.4, 0.3, 0.9, 0.5, 1.5, 0.5c0.9, 0, 1.6-0.4, 2.2-1.1 c0.5-0.7, 0.8-1.8, 0.8-3.4V-18h-2.9v6.9c0, 0.8-0.1, 1.3-0.3, 1.6C21.4-9.1, 21-9, 20.6-9c-0.3, 0-0.5-0.1-0.7-0.2 c-0.2-0.1-0.4-0.3-0.6-0.6V-18h-2.9v11.1H19.1z"/>
		<path d="M29.7-18h-2.9v16h2.9V-18z"/>
		<path d="M37.1-18c-0.1, 0.2-0.2, 0.4-0.2, 0.6c-0.1, 0.2-0.1, 0.4-0.1, 0.7c-0.3-0.5-0.6-0.8-1-1.1 c-0.4-0.3-0.8-0.4-1.4-0.4c-0.9, 0-1.6, 0.3-2.2, 0.9c-0.6, 0.6-0.8, 1.4-0.8, 2.4c0, 1.1, 0.4, 1.9, 1.1, 2.5c0.7, 0.6, 1.7, 0.9, 3.1, 0.9h1.1 v0.9c0, 0.5-0.1, 1-0.3, 1.2c-0.2, 0.3-0.5, 0.4-0.9, 0.4c-0.3, 0-0.6-0.1-0.7-0.3s-0.2-0.6-0.2-1l-2.8, 0l0, 0.1c0, 1, 0.3, 1.8, 1.1, 2.5 c0.7, 0.7, 1.7, 1, 3, 1c1.2, 0, 2.1-0.3, 2.8-1c0.7-0.7, 1.1-1.6, 1.1-2.9V-15c0-0.5, 0-1.1, 0.1-1.5c0.1-0.5, 0.2-0.9, 0.3-1.4H37.1z M35.2-16 c0.3, 0, 0.6, 0.1, 0.8, 0.2c0.2, 0.2, 0.4, 0.4, 0.6, 0.6v2h-1.1c-0.4, 0-0.8-0.2-1-0.5s-0.3-0.7-0.3-1.2c0-0.4, 0.1-0.7, 0.3-0.9 S34.9-16, 35.2-16z"/>
		<path d="M44.1-6.9l0.1-1.5c0.3, 0.5, 0.7, 1, 1.1, 1.3c0.4, 0.3, 0.9, 0.5, 1.5, 0.5c0.9, 0, 1.6-0.4, 2.2-1.1 c0.5-0.7, 0.8-1.8, 0.8-3.4V-18h-2.9v6.9c0, 0.8-0.1, 1.3-0.3, 1.6C46.3-9.1, 46-9, 45.5-9c-0.3, 0-0.5-0.1-0.7-0.2 c-0.2-0.1-0.4-0.3-0.6-0.6V-18h-2.9v11.1H44.1z"/>
		<path d="M51.2-12.5c0, 1.7, 0.3, 3.1, 1, 4.2s1.5, 1.6, 2.7, 1.6c0.4, 0, 0.8-0.1, 1.2-0.3c0.3-0.2, 0.7-0.5, 0.9-0.9V-2h2.9 v-16h-2.5l-0.2, 1.2c-0.3-0.5-0.6-0.8-1-1.1c-0.4-0.2-0.8-0.4-1.3-0.4c-1.2, 0-2.1, 0.5-2.7, 1.5c-0.6, 1-1, 2.3-1, 4V-12.5z M54.1-12.7 c0-1, 0.1-1.8, 0.3-2.3c0.2-0.6, 0.6-0.8, 1.2-0.8c0.3, 0, 0.6, 0.1, 0.8, 0.2s0.4, 0.3, 0.6, 0.6v5.1c-0.2, 0.3-0.3, 0.5-0.6, 0.7 C56.2-9.1, 55.9-9, 55.6-9c-0.5, 0-0.9-0.3-1.2-1s-0.4-1.5-0.4-2.5V-12.7z"/>
	</symbol>
	<symbol id="finland_value" class="country_value" viewBox="4.9 -26 45.5 21.9">
		<path d="M13-25.7H8.8v17l-4-0.1v3L13-4.3V-25.7z"/>
		<path d="M30.2-25.7H17.6v2.8l5.8, 7.4c0.8, 1.1, 1.3, 2, 1.7, 2.9c0.3, 0.8, 0.5, 1.6, 0.5, 2.2c0, 0.9-0.2, 1.6-0.5, 2.2 s-0.9, 0.8-1.5, 0.8c-0.7, 0-1.2-0.3-1.6-1C21.6-9, 21.4-9.9, 21.4-11h-4.1l0, 0.1C17.3-9, 17.9-7.4, 19-6s2.7, 2, 4.6, 2 c2, 0, 3.5-0.6, 4.6-1.7s1.6-2.7, 1.6-4.6c0-1.3-0.3-2.5-0.9-3.6s-1.6-2.6-3.1-4.4l-2.8-4h7.2V-25.7z"/>
		<path d="M35.8-25.7h-4.1v3.8h4.1V-25.7z"/>
		<path d="M45-4c0.7, 0, 1.3-0.1, 1.9-0.2c0.6-0.2, 1.2-0.4, 1.8-0.7l-0.7-3.1c-0.5, 0.2-1, 0.4-1.4, 0.5 c-0.4, 0.1-0.9, 0.2-1.5, 0.2c-1, 0-1.8-0.5-2.4-1.4c-0.6-0.9-0.9-2.2-0.9-3.9l0.1-0.1c0.4, 0.4, 0.9, 0.8, 1.5, 1s1.3, 0.4, 2, 0.4 c1.6, 0, 2.9-0.7, 3.8-2c0.9-1.4, 1.4-3.1, 1.4-5.2c0-2.1-0.6-3.9-1.7-5.3c-1.2-1.4-2.7-2.1-4.5-2.1c-2, 0-3.6, 0.8-4.8, 2.3 s-1.8, 3.6-1.8, 6.3v4.4c0, 2.8, 0.7, 5, 2.1, 6.6C41-4.8, 42.8-4, 45-4z M44.1-14.6c-0.6, 0-1.1-0.1-1.5-0.3s-0.7-0.5-1-0.8v-1.7 c0-1.7, 0.2-2.9, 0.7-3.8c0.4-0.9, 1-1.3, 1.8-1.3c0.6, 0, 1.1, 0.4, 1.5, 1.2c0.4, 0.8, 0.6, 1.7, 0.6, 2.9c0, 1.2-0.2, 2.1-0.6, 2.9 C45.2-15, 44.7-14.6, 44.1-14.6z"/>
	</symbol>
	<symbol id="germany" class="country_name" viewBox="0.8 -22.4 72.2 19.6">
		<path d="M11-15.8c-0.4-0.6-1-1.2-1.8-1.7c-0.8-0.5-1.8-0.7-3.1-0.7c-1.6, 0-2.9, 0.5-3.9, 1.4c-1, 0.9-1.5, 2.3-1.5, 4 v4.6c0, 1.7, 0.5, 3, 1.4, 4c0.9, 0.9, 2.2, 1.4, 3.7, 1.4c1.7, 0, 2.9-0.4, 3.7-1.2c0.8-0.8, 1.3-2, 1.3-3.5l0-0.1H8.2c0, 0.8-0.2, 1.5-0.6, 1.8 C7.3-5.3, 6.7-5.1, 6-5.1c-0.7, 0-1.3-0.3-1.7-0.8S3.7-7.2, 3.7-8.2v-4.6c0-1, 0.2-1.8, 0.6-2.3c0.4-0.5, 1-0.8, 1.8-0.8 c0.6, 0, 1, 0.1, 1.3, 0.2c0.3, 0.2, 0.5, 0.4, 0.7, 0.7v2.7h-2v2.1H11V-15.8z"/>
		<path d="M17.3-18.2c-1.4, 0-2.5, 0.5-3.3, 1.4s-1.2, 2.1-1.2, 3.5v1.6c0, 1.5, 0.4, 2.7, 1.1, 3.7c0.8, 1, 1.8, 1.4, 3.2, 1.4 c1.3, 0, 2.3-0.4, 3-1.3c0.7-0.9, 1.1-2.1, 1.1-3.5v-1.8h-5.5v0c0-0.7, 0.2-1.3, 0.5-1.8c0.3-0.5, 0.8-0.7, 1.5-0.7c0.5, 0, 1, 0.1, 1.3, 0.2 s0.7, 0.3, 1.2, 0.6l0.7-1.9c-0.4-0.4-0.9-0.7-1.5-0.9C18.8-18.1, 18.1-18.2, 17.3-18.2z M17.1-9c-0.5, 0-0.8-0.2-1-0.6 c-0.2-0.4-0.3-1-0.4-1.7h2.6v0.4c0, 0.6-0.1, 1.1-0.3, 1.4S17.5-9, 17.1-9z"/>
		<path d="M27.9-9.5l-1.1, 0c-0.3, 0-0.6-0.1-0.8-0.2c-0.2-0.2-0.4-0.4-0.5-0.6V-18h-2.9v11.1h2.7l0.1-1.5l0.1, 0 c0.2, 0.5, 0.4, 1, 0.7, 1.3c0.3, 0.3, 0.7, 0.5, 1.1, 0.5c0.1, 0, 0.3, 0, 0.4, 0c0.1, 0, 0.3-0.1, 0.4-0.1L27.9-9.5z"/>
		<path d="M32.1-6.9l0.1-1.4c0.3, 0.5, 0.7, 0.9, 1.1, 1.2s1, 0.4, 1.5, 0.4c0.6, 0, 1-0.1, 1.5-0.4c0.4-0.3, 0.7-0.8, 1-1.4 c0.3, 0.6, 0.7, 1, 1.1, 1.3s1, 0.5, 1.6, 0.5c0.9, 0, 1.6-0.4, 2.2-1.1c0.5-0.8, 0.8-1.9, 0.8-3.5V-18H40v6.7c0, 0.9-0.1, 1.4-0.3, 1.8 C39.5-9.2, 39.2-9, 38.9-9c-0.3, 0-0.5-0.1-0.7-0.2s-0.4-0.4-0.5-0.7c0-0.1, 0-0.3, 0-0.4c0-0.1, 0-0.3, 0-0.4V-18h-2.9v6.7 c0, 0.8-0.1, 1.4-0.3, 1.8C34.2-9.2, 33.9-9, 33.5-9c-0.3, 0-0.5-0.1-0.7-0.2c-0.2-0.1-0.4-0.3-0.5-0.6V-18h-2.9v11.1H32.1z"/>
		<path d="M50.2-18c-0.1, 0.2-0.2, 0.4-0.2, 0.6c-0.1, 0.2-0.1, 0.4-0.1, 0.7c-0.3-0.5-0.6-0.8-1-1.1 c-0.4-0.3-0.8-0.4-1.4-0.4c-0.9, 0-1.6, 0.3-2.2, 0.9c-0.6, 0.6-0.8, 1.4-0.8, 2.4c0, 1.1, 0.4, 1.9, 1.1, 2.5c0.7, 0.6, 1.7, 0.9, 3.1, 0.9h1.1 v0.9c0, 0.5-0.1, 1-0.3, 1.2C49.2-9, 49-8.8, 48.6-8.8c-0.3, 0-0.6-0.1-0.7-0.3c-0.2-0.2-0.2-0.6-0.2-1l-2.8, 0l0, 0.1 c0, 1, 0.3, 1.8, 1.1, 2.5c0.7, 0.7, 1.7, 1, 3, 1c1.2, 0, 2.1-0.3, 2.8-1c0.7-0.7, 1.1-1.6, 1.1-2.9V-15c0-0.5, 0-1.1, 0.1-1.5 c0.1-0.5, 0.2-0.9, 0.3-1.4H50.2z M48.3-16c0.3, 0, 0.6, 0.1, 0.8, 0.2c0.2, 0.2, 0.4, 0.4, 0.6, 0.6v2h-1.1c-0.4, 0-0.8-0.2-1-0.5 c-0.2-0.3-0.3-0.7-0.3-1.2c0-0.4, 0.1-0.7, 0.3-0.9C47.8-15.9, 48-16, 48.3-16z"/>
		<path d="M57.2-6.9l0.1-1.5c0.3, 0.5, 0.7, 1, 1.1, 1.3c0.4, 0.3, 0.9, 0.5, 1.5, 0.5c0.9, 0, 1.6-0.4, 2.2-1.1 c0.5-0.7, 0.8-1.8, 0.8-3.4V-18H60v6.9c0, 0.8-0.1, 1.3-0.3, 1.6c-0.2, 0.3-0.5, 0.5-1, 0.5c-0.3, 0-0.5-0.1-0.7-0.2s-0.4-0.3-0.6-0.6V-18 h-2.9v11.1H57.2z"/>
		<path d="M68.3-13.4l0-0.1l1.6, 6.7H73l-3.7-12.8c-0.3-0.8-0.7-1.5-1.1-2c-0.5-0.5-1.2-0.8-2.1-0.8 c-0.2, 0-0.5, 0-0.6, 0.1s-0.4, 0.1-0.7, 0.2L65-20c0.1, 0, 0.2, 0, 0.3, 0c0.1, 0, 0.1, 0, 0.2, 0c0.4, 0, 0.7, 0.1, 1, 0.3c0.2, 0.2, 0.4, 0.5, 0.5, 0.9 l0.3, 0.8L63.8-6.9h3.1L68.3-13.4z"/>
	</symbol>
	<symbol  id="germany_value" class="country_value" viewBox="6 -26 32.7 21.9">
		<path d="M18.2-10c0-1.1-0.2-2-0.7-2.8c-0.5-0.8-1.1-1.5-2-1.9c1-0.5, 1.7-1.2, 2.3-2.1s0.8-1.9, 0.8-3 c0-2-0.6-3.5-1.7-4.6S14.2-26, 12.3-26s-3.4, 0.5-4.5, 1.6S6-21.8, 6-19.8c0, 1.1, 0.3, 2.2, 0.8, 3s1.3, 1.6, 2.3, 2c-0.8, 0.5-1.5, 1.1-2, 1.9 S6.4-11.1, 6.4-10C6.4-8.1, 7-6.6, 8-5.6S10.5-4, 12.3-4s3.2-0.5, 4.3-1.6S18.2-8.1, 18.2-10z M14.4-19.5c0, 1-0.2, 1.7-0.6, 2.3 c-0.4, 0.6-0.9, 0.8-1.5, 0.8c-0.6, 0-1.1-0.3-1.5-0.8c-0.4-0.6-0.6-1.3-0.6-2.3c0-1, 0.2-1.7, 0.6-2.3c0.4-0.6, 0.9-0.8, 1.5-0.8 c0.6, 0, 1.1, 0.3, 1.5, 0.8C14.2-21.3, 14.4-20.5, 14.4-19.5z M14-10.2c0, 0.9-0.1, 1.6-0.4, 2.1c-0.3, 0.5-0.7, 0.8-1.3, 0.8s-1-0.2-1.2-0.7 c-0.3-0.5-0.4-1.2-0.4-2.1c0-0.9, 0.1-1.6, 0.4-2.1c0.3-0.5, 0.7-0.8, 1.3-0.8s1, 0.3, 1.2, 0.8S14-11.1, 14-10.2z"/>
		<path d="M24.2-25.7h-4.1v3.8h4.1V-25.7z"/>
		<path d="M33.4-4c0.7, 0, 1.3-0.1, 1.9-0.2c0.6-0.2, 1.2-0.4, 1.8-0.7l-0.7-3.1c-0.5, 0.2-1, 0.4-1.4, 0.5 c-0.4, 0.1-0.9, 0.2-1.5, 0.2c-1, 0-1.8-0.5-2.4-1.4c-0.6-0.9-0.9-2.2-0.9-3.9l0.1-0.1c0.4, 0.4, 0.9, 0.8, 1.5, 1s1.3, 0.4, 2, 0.4 c1.6, 0, 2.9-0.7, 3.8-2c0.9-1.4, 1.4-3.1, 1.4-5.2c0-2.1-0.6-3.9-1.7-5.3c-1.2-1.4-2.7-2.1-4.5-2.1c-2, 0-3.6, 0.8-4.8, 2.3 s-1.8, 3.6-1.8, 6.3v4.4c0, 2.8, 0.7, 5, 2.1, 6.6C29.4-4.8, 31.2-4, 33.4-4z M32.5-14.6c-0.6, 0-1.1-0.1-1.5-0.3s-0.7-0.5-1-0.8v-1.7 c0-1.7, 0.2-2.9, 0.7-3.8c0.4-0.9, 1-1.3, 1.8-1.3c0.6, 0, 1.1, 0.4, 1.5, 1.2c0.4, 0.8, 0.6, 1.7, 0.6, 2.9c0, 1.2-0.2, 2.1-0.6, 2.9 C33.6-15, 33.1-14.6, 32.5-14.6z"/>
	</symbol>
	<symbol id="heading_a" viewBox="0.3 -20.8 82 17.6">
		<path fill="#42210B" d="M11.3-6.1H7.5v-14.4H4.2v14.4H0.3v2.7h11V-6.1z"/>
		<path fill="#42210B" d="M23.5-14.4c0-2-0.5-3.6-1.6-4.7s-2.5-1.7-4.3-1.7s-3.2, 0.6-4.3, 1.7s-1.6, 2.7-1.6, 4.7v4.8 c0, 2, 0.5, 3.6, 1.6, 4.7s2.5, 1.7, 4.3, 1.7s3.2-0.6, 4.3-1.7s1.6-2.7, 1.6-4.7V-14.4z M20.2-9.6c0, 1.2-0.2, 2.1-0.7, 2.8 c-0.5, 0.6-1.1, 0.9-2, 0.9c-0.9, 0-1.5-0.3-2-0.9c-0.4-0.6-0.7-1.5-0.7-2.8v-4.8c0-1.2, 0.2-2.2, 0.7-2.8s1.1-0.9, 2-0.9 c0.9, 0, 1.5, 0.3, 2, 0.9s0.7, 1.5, 0.7, 2.8V-9.6z"/>
		<path fill="#42210B" d="M28.4-14.4v-6.1h-3.3v17.1H31c1.7, 0, 3-0.5, 4-1.5s1.5-2.3, 1.5-4c0-1.6-0.5-3-1.5-4c-1-1-2.3-1.5-4-1.5H28.4 z M28.4-11.7H31c0.7, 0, 1.3, 0.3, 1.6, 0.8s0.6, 1.2, 0.6, 2c0, 0.8-0.2, 1.5-0.6, 2c-0.4, 0.5-0.9, 0.8-1.6, 0.8h-2.6V-11.7z"/>
		<path fill="#42210B" d="M51.8-13.4H46v-7.1h-3.3v17.1h10.1v-2.7H46v-4.7h5.8V-13.4z"/>
		<path fill="#42210B" d="M57.5-20.5h-3.3v17.1h3.3V-20.5z"/>
		<path fill="#42210B" d="M64.8-16.2l0.1-0.7H65l0.1, 0.6L68-3.5h3.5l-4.8-17.1h-3.5L58.5-3.5H62L64.8-16.2z"/>
		<path fill="#42210B" d="M81.4-13h-5.7v-4.8h6.7v-2.7H72.3v17.1h10.1v-2.7h-6.7v-4.3h5.7V-13z"/>
	</symbol>
	<symbol id="heading_b" class="heading_b" viewBox="1.6 -32.1 268.5 29.6">
		<path d="M1.6-25.7v21.3h6.3c2.2, 0, 3.9-0.5, 5.1-1.5s1.9-2.4, 1.9-4.4c0-1-0.2-1.9-0.7-2.7s-1.1-1.4-2-1.8 c1.1-0.3, 2-0.8, 2.5-1.7s0.8-1.9, 0.8-3.1c0-2-0.6-3.6-1.8-4.6s-2.8-1.6-5-1.6H1.6z M5.8-13.3h2.3c0.8, 0, 1.5, 0.3, 2, 0.7
			c0.5, 0.5, 0.7, 1.2, 0.7, 2c0, 1-0.2, 1.7-0.7, 2.2S8.8-7.7, 7.9-7.7H5.8V-13.3z M5.8-16.3v-6.1h2.9c0.9, 0, 1.5, 0.2, 2, 0.7s0.7, 1.2, 0.7, 2.2
			c0, 1-0.2, 1.8-0.6, 2.3s-1, 0.8-1.8, 0.8H5.8z"/>
		<path d="M22-6h-4.2v3.2H22V-6z M22-25.7h-4.2v15.8H22V-25.7z"/>
		<path d="M24.1-17c0, 2.2, 0.5, 4, 1.4, 5.4s2.2, 2.1, 3.9, 2.1c0.7, 0, 1.3-0.2, 1.9-0.5s1-0.9, 1.4-1.5l0.3, 1.8h3.6v-15.5 c0-2.1-0.6-3.7-1.8-4.9s-2.9-1.8-5-1.8c-0.7, 0-1.4, 0.1-2.2, 0.3s-1.5, 0.5-2.2, 0.9l0.7, 3.2c0.6-0.3, 1.1-0.5, 1.7-0.7s1.2-0.2, 1.9-0.2 c0.9, 0, 1.5, 0.3, 2, 0.8s0.7, 1.4, 0.7, 2.4v0.9c-0.4-0.5-0.8-0.9-1.3-1.1S30-26, 29.3-26c-1.7, 0-3, 0.6-3.9, 1.9s-1.4, 3-1.4, 5.1V-17z  M28.2-19c0-1.2, 0.2-2.1, 0.5-2.7s0.9-1, 1.7-1c0.4, 0, 0.8, 0.1, 1.1, 0.3c0.3, 0.2, 0.6, 0.4, 0.8, 0.8v7.5c-0.2, 0.4-0.5, 0.7-0.8, 0.9 c-0.3, 0.2-0.7, 0.3-1.1, 0.3c-0.8, 0-1.3-0.4-1.7-1.1s-0.5-1.8-0.5-3V-19z"/>
		<path d="M38.3-17c0, 2.2, 0.5, 4, 1.4, 5.4s2.2, 2.1, 3.9, 2.1c0.7, 0, 1.3-0.2, 1.9-0.5s1-0.9, 1.4-1.5l0.3, 1.8h3.6v-15.5 c0-2.1-0.6-3.7-1.8-4.9s-2.9-1.8-5-1.8c-0.7, 0-1.4, 0.1-2.2, 0.3s-1.5, 0.5-2.2, 0.9l0.7, 3.2c0.6-0.3, 1.1-0.5, 1.7-0.7s1.2-0.2, 1.9-0.2 c0.9, 0, 1.5, 0.3, 2, 0.8s0.7, 1.4, 0.7, 2.4v0.9c-0.4-0.5-0.8-0.9-1.3-1.1S44.2-26, 43.6-26c-1.7, 0-3, 0.6-3.9, 1.9s-1.4, 3-1.4, 5.1V-17z  M42.5-19c0-1.2, 0.2-2.1, 0.5-2.7s0.9-1, 1.7-1c0.4, 0, 0.8, 0.1, 1.1, 0.3c0.3, 0.2, 0.6, 0.4, 0.8, 0.8v7.5c-0.2, 0.4-0.5, 0.7-0.8, 0.9 c-0.3, 0.2-0.7, 0.3-1.1, 0.3c-0.8, 0-1.3-0.4-1.7-1.1s-0.5-1.8-0.5-3V-19z"/>
		<path d="M59.3-26c-2, 0-3.6, 0.7-4.7, 2s-1.8, 3-1.8, 5v2.2c0, 2.1, 0.5, 3.9, 1.6, 5.3s2.6, 2.1, 4.5, 2.1 c1.9, 0, 3.3-0.6, 4.3-1.9s1.5-2.9, 1.5-5.1V-19H57v-0.1c0-1, 0.2-1.9, 0.7-2.6s1.2-1, 2.1-1c0.8, 0, 1.4, 0.1, 1.9, 0.3s1.1, 0.5, 1.7, 0.9 l1.1-2.7c-0.5-0.5-1.3-1-2.2-1.3S60.4-26, 59.3-26z M59-12.8c-0.7, 0-1.2-0.3-1.5-0.9S57-15.2, 57-16.2h3.7v0.6 c0, 0.9-0.1, 1.6-0.4, 2.1C60-13.1, 59.6-12.8, 59-12.8z"/>
		<path d="M73.5-21.5c0, 0.4-0.2, 0.8-0.5, 1.2s-1, 0.7-2, 1.2c-1.6, 0.6-2.8, 1.3-3.6, 2s-1.2, 1.7-1.2, 2.9 c0, 1.3, 0.5, 2.4, 1.5, 3.3s2.4, 1.4, 4, 1.4c1.8, 0, 3.2-0.5, 4.2-1.4s1.5-2.1, 1.5-3.6l0-0.1h-4c0, 0.7-0.1, 1.2-0.4, 1.6s-0.7, 0.6-1.3, 0.6 c-0.4, 0-0.8-0.2-1.1-0.5s-0.5-0.7-0.5-1.1c0-0.5, 0.2-0.8, 0.5-1.1s1-0.7, 2-1.2c1.7-0.6, 2.9-1.2, 3.7-2s1.2-1.8, 1.2-3.1 c0-1.3-0.5-2.5-1.6-3.3S73.4-26, 71.7-26c-1.8, 0-3.3, 0.5-4.3, 1.6s-1.6, 2.3-1.5, 3.6l0, 0.1h3.8c0-0.8, 0.2-1.4, 0.6-1.8 s0.9-0.6, 1.5-0.6c0.6, 0, 1, 0.1, 1.3, 0.4S73.5-22, 73.5-21.5z"/>
		<path d="M84.3-5.9v-3.9h2.2v-3h-2.2v-8c0-0.6, 0.1-1.1, 0.3-1.4s0.4-0.4, 0.8-0.4c0.3, 0, 0.5, 0, 0.6, 0s0.4, 0.1, 0.6, 0.1 l0.3-3.2c-0.4-0.1-0.9-0.2-1.3-0.3S84.7-26, 84.2-26c-1.3, 0-2.4, 0.4-3.1, 1.2s-1.1, 2.1-1.1, 3.9v8h-1.9v3h1.9v3.9H84.3z"/>
		<path d="M108.4-18.8L108.4-18.8c0.1-2.4-0.5-4.2-1.6-5.4s-2.8-1.8-5-1.8s-4, 0.7-5.3, 2s-2, 3.3-2, 5.7v6.4 c0, 2.5, 0.6, 4.4, 1.9, 5.8s3, 2, 5.1, 2c2.3, 0, 4-0.6, 5.1-1.8s1.8-3, 1.8-5.4l0-0.1h-4c0.1, 1.4-0.1, 2.4-0.6, 3c-0.4, 0.6-1.2, 0.9-2.3, 0.9 c-0.9, 0-1.7-0.4-2.2-1.1s-0.7-1.8-0.7-3.3v-6.4c0-1.5, 0.3-2.6, 0.8-3.4s1.3-1.1, 2.3-1.1c1, 0, 1.7, 0.3, 2.1, 0.9s0.6, 1.6, 0.5, 3H108.4z" />
		<path d="M109.9-16.8c0, 2.1, 0.6, 3.9, 1.7, 5.2s2.7, 2, 4.7, 2s3.6-0.7, 4.7-2s1.7-3.1, 1.7-5.2v-2c0-2.1-0.6-3.9-1.7-5.2 s-2.7-2-4.7-2c-2, 0-3.6, 0.7-4.8, 2s-1.7, 3.1-1.7, 5.2V-16.8z M114.1-18.7c0-1.2, 0.2-2.2, 0.5-2.9s0.9-1, 1.8-1c0.8, 0, 1.4, 0.3, 1.8, 1 s0.5, 1.7, 0.5, 2.9v2c0, 1.2-0.2, 2.1-0.5, 2.9s-0.9, 1.1-1.8, 1.1s-1.4-0.4-1.8-1.1c-0.3-0.7-0.5-1.7-0.5-2.8V-18.7z"/>
		<path d="M125.6-25.7v12.8h-1.9v3h1.9v1.8c0, 1.8, 0.5, 3.1, 1.4, 4.1s2.2, 1.4, 3.9, 1.4c0.3, 0, 0.6, 0, 1-0.1 c0.3-0.1, 0.7-0.1, 1.1-0.2L132.6-6c-0.2, 0-0.4, 0.1-0.6, 0.1s-0.4, 0-0.6, 0c-0.5, 0-0.9-0.2-1.2-0.6s-0.4-0.9-0.4-1.6v-1.8h2.5v-3h-2.5 v-12.8H125.6z"/>
		<path d="M134.8-25.7v12.8h-1.9v3h1.9v1.8c0, 1.8, 0.5, 3.1, 1.4, 4.1s2.2, 1.4, 3.9, 1.4c0.3, 0, 0.6, 0, 1-0.1 c0.3-0.1, 0.7-0.1, 1.1-0.2L141.8-6c-0.2, 0-0.4, 0.1-0.6, 0.1s-0.4, 0-0.6, 0c-0.5, 0-0.9-0.2-1.2-0.6S139-7.3, 139-8v-1.8h2.5v-3H139 v-12.8H134.8z"/>
		<path d="M148.9-26c-2, 0-3.6, 0.7-4.7, 2s-1.8, 3-1.8, 5v2.2c0, 2.1, 0.5, 3.9, 1.6, 5.3s2.6, 2.1, 4.5, 2.1 c1.9, 0, 3.3-0.6, 4.3-1.9s1.5-2.9, 1.5-5.1V-19h-7.8v-0.1c0-1, 0.2-1.9, 0.7-2.6s1.2-1, 2.1-1c0.8, 0, 1.4, 0.1, 1.9, 0.3s1.1, 0.5, 1.7, 0.9 l1.1-2.7c-0.5-0.5-1.3-1-2.2-1.3S150-26, 148.9-26z M148.5-12.8c-0.7, 0-1.2-0.3-1.5-0.9s-0.5-1.4-0.5-2.5h3.7v0.6 c0, 0.9-0.1, 1.6-0.4, 2.1C149.6-13.1, 149.1-12.8, 148.5-12.8z"/>
		<path d="M162.3-26c-2, 0-3.6, 0.7-4.7, 2s-1.8, 3-1.8, 5v2.2c0, 2.1, 0.5, 3.9, 1.6, 5.3s2.6, 2.1, 4.5, 2.1 c1.9, 0, 3.3-0.6, 4.3-1.9s1.5-2.9, 1.5-5.1V-19h-7.8v-0.1c0-1, 0.2-1.9, 0.7-2.6s1.2-1, 2.1-1c0.8, 0, 1.4, 0.1, 1.9, 0.3s1.1, 0.5, 1.7, 0.9 l1.1-2.7c-0.5-0.5-1.3-1-2.2-1.3S163.4-26, 162.3-26z M162-12.8c-0.7, 0-1.2-0.3-1.5-0.9s-0.5-1.4-0.5-2.5h3.7v0.6 c0, 0.9-0.1, 1.6-0.4, 2.1C163-13.1, 162.6-12.8, 162-12.8z"/>
		<path d="M176.1-25.7v21.3h6.4c2.2, 0, 4-0.8, 5.4-2.5s2.1-3.8, 2.1-6.4v-3.6c0-2.6-0.7-4.7-2.1-6.4s-3.2-2.5-5.4-2.5 H176.1z M180.3-7.7v-14.7h2c1.2, 0, 2.1, 0.5, 2.7, 1.5s0.9, 2.4, 0.9, 4v3.6c0, 1.7-0.3, 3-0.9, 4s-1.5, 1.5-2.7, 1.5H180.3z"/>
		<path d="M199.9-13.6l-1.6, 0c-0.4, 0-0.8-0.1-1.1-0.3s-0.5-0.5-0.7-0.9v-10.9h-4.2v15.8h3.9l0.2-2.1l0.1, 0 c0.3, 0.8, 0.6, 1.4, 1.1, 1.8s1, 0.7, 1.6, 0.7c0.2, 0, 0.4, 0, 0.6-0.1s0.4-0.1, 0.5-0.1L199.9-13.6z"/>
		<path d="M206.1-6h-4.2v3.2h4.2V-6z M206.1-25.7h-4.2v15.8h4.2V-25.7z"/>
		<path d="M212.5-9.8l0.2-2.2c0.4, 0.8, 1, 1.4, 1.6, 1.8s1.3, 0.7, 2.1, 0.7c1.3, 0, 2.4-0.5, 3.1-1.5s1.1-2.6, 1.1-4.8v-9.8 h-4.2v9.8c0, 1.1-0.2, 1.9-0.5, 2.3c-0.3, 0.4-0.8, 0.7-1.4, 0.7c-0.4, 0-0.7-0.1-1-0.3s-0.6-0.5-0.8-0.8v-11.7h-4.2v15.8H212.5z"/>
		<path d="M227.9-19.1h-0.8v-6.6h-4.2v22.9h4.2v-13h0.7l2.7, 6h4.8l-4.1-7.1l4.8-8.7h-4.8L227.9-19.1z"/>
		<path d="M242.6-26c-2, 0-3.6, 0.7-4.7, 2s-1.8, 3-1.8, 5v2.2c0, 2.1, 0.5, 3.9, 1.6, 5.3s2.6, 2.1, 4.5, 2.1 c1.9, 0, 3.3-0.6, 4.3-1.9s1.5-2.9, 1.5-5.1V-19h-7.8v-0.1c0-1, 0.2-1.9, 0.7-2.6s1.2-1, 2.1-1c0.8, 0, 1.4, 0.1, 1.9, 0.3s1.1, 0.5, 1.7, 0.9 l1.1-2.7c-0.5-0.5-1.3-1-2.2-1.3S243.7-26, 242.6-26z M242.3-12.8c-0.7, 0-1.2-0.3-1.5-0.9s-0.5-1.4-0.5-2.5h3.7v0.6 c0, 0.9-0.1, 1.6-0.4, 2.1C243.3-13.1, 242.9-12.8, 242.3-12.8z"/>
		<path d="M257.4-13.6l-1.6, 0c-0.4, 0-0.8-0.1-1.1-0.3s-0.5-0.5-0.7-0.9v-10.9h-4.2v15.8h3.9l0.2-2.1l0.1, 0 c0.3, 0.8, 0.6, 1.4, 1.1, 1.8s1, 0.7, 1.6, 0.7c0.2, 0, 0.4, 0, 0.6-0.1s0.4-0.1, 0.5-0.1L257.4-13.6z"/>
		<path d="M266.1-21.5c0, 0.4-0.2, 0.8-0.5, 1.2s-1, 0.7-2, 1.2c-1.6, 0.6-2.8, 1.3-3.6, 2s-1.2, 1.7-1.2, 2.9 c0, 1.3, 0.5, 2.4, 1.5, 3.3s2.4, 1.4, 4.1, 1.4c1.8, 0, 3.2-0.5, 4.2-1.4s1.5-2.1, 1.5-3.6l0-0.1h-4c0, 0.7-0.1, 1.2-0.4, 1.6s-0.7, 0.6-1.3, 0.6 c-0.4, 0-0.8-0.2-1.1-0.5s-0.5-0.7-0.5-1.1c0-0.5, 0.2-0.8, 0.5-1.1s1-0.7, 2-1.2c1.7-0.6, 2.9-1.2, 3.7-2s1.2-1.8, 1.2-3.1 c0-1.3-0.5-2.5-1.6-3.3S266-26, 264.3-26c-1.8, 0-3.3, 0.5-4.3, 1.6s-1.6, 2.3-1.5, 3.6l0, 0.1h3.8c0-0.8, 0.2-1.4, 0.6-1.8 s0.9-0.6, 1.5-0.6c0.6, 0, 1, 0.1, 1.3, 0.4S266.1-22, 266.1-21.5z"/>
	</symbol>
	<symbol id="heading_bar" viewBox="0 -30.8 299.6 30.8">
		<polygon fill="#F15A24" points="299.6, -30.8 0, -30.8 0, 0 299.6, 0"/>
	</symbol>
	<symbol id="heading_c" viewBox="0.5 -22.2 209.2 20.3">
		<path fill="#42210B" d="M5-15.9c0.4, 0, 0.7, 0.1, 0.9, 0.4s0.3, 0.7, 0.3, 1.3h2.6l0-0.1c0-1.2-0.3-2.1-1.1-2.9S6.1-18.2, 5-18.2 c-1.4, 0-2.5, 0.5-3.3, 1.4c-0.8, 0.9-1.2, 2.1-1.2, 3.6v1.4c0, 1.5, 0.4, 2.7, 1.1, 3.6C2.4-7.1, 3.5-6.7, 5-6.7c1.2, 0, 2.2-0.4, 2.9-1.2 c0.7-0.8, 1.1-1.8, 1-3.1l0-0.1H6.2c0, 0.6-0.1, 1.1-0.3, 1.5S5.4-9, 5-9C4.4-9, 4-9.2, 3.8-9.7c-0.2-0.5-0.3-1.2-0.3-2v-1.4 c0-0.8, 0.1-1.5, 0.3-2C4-15.6, 4.4-15.9, 5-15.9z"/>
		<path fill="#42210B" d="M15.9-16.7c-0.3-0.5-0.7-0.9-1.1-1.1c-0.4-0.3-0.9-0.4-1.5-0.4c-1, 0-1.8, 0.4-2.3, 1.1 c-0.6, 0.7-0.8, 1.9-0.8, 3.5v6.7h2.9v-6.7c0-0.8, 0.1-1.4, 0.3-1.7c0.2-0.4, 0.5-0.5, 0.9-0.5c0.3, 0, 0.6, 0.1, 0.8, 0.2s0.5, 0.3, 0.6, 0.5 v8.3h2.9V-18h-2.6L15.9-16.7z"/>
		<path fill="#42210B" d="M29.2-13.3c0-1.5-0.3-2.7-1-3.6c-0.6-0.9-1.5-1.3-2.7-1.3c-0.5, 0-0.9, 0.1-1.2, 0.3s-0.7, 0.4-0.9, 0.8v-5.1 h-2.9v15.4h2.7L23.3-8c0.3, 0.4, 0.6, 0.7, 0.9, 1s0.8, 0.3, 1.3, 0.3c1.2, 0, 2.1-0.5, 2.7-1.4c0.6-1, 1-2.2, 1-3.8V-13.3z M26.3-11.9 c0, 0.9-0.1, 1.6-0.4, 2.1C25.6-9.3, 25.3-9, 24.7-9c-0.3, 0-0.6-0.1-0.8-0.2s-0.4-0.4-0.5-0.7v-5.2c0.1-0.2, 0.3-0.4, 0.5-0.6 c0.2-0.1, 0.5-0.2, 0.8-0.2c0.5, 0, 0.9, 0.2, 1.2, 0.7c0.2, 0.5, 0.4, 1.1, 0.4, 1.9V-11.9z"/>
		<path fill="#42210B" d="M35.5-15.1c0, 0.3-0.1, 0.6-0.4, 0.8c-0.2, 0.2-0.7, 0.5-1.4, 0.8c-1.1, 0.4-1.9, 0.9-2.5, 1.4s-0.8, 1.2-0.8, 2.1 c0, 0.9, 0.4, 1.7, 1.1, 2.3c0.7, 0.6, 1.7, 1, 2.8, 1c1.2, 0, 2.2-0.3, 2.9-1c0.7-0.7, 1.1-1.5, 1.1-2.5l0-0.1h-2.8c0, 0.5-0.1, 0.8-0.3, 1.1 s-0.5, 0.4-0.9, 0.4c-0.3, 0-0.6-0.1-0.8-0.3s-0.3-0.5-0.3-0.8c0-0.3, 0.1-0.6, 0.3-0.8c0.2-0.2, 0.7-0.5, 1.4-0.8c1.2-0.4, 2-0.9, 2.6-1.4 c0.6-0.5, 0.8-1.3, 0.8-2.1c0-0.9-0.4-1.7-1.1-2.3s-1.7-0.9-3-0.9c-1.3, 0-2.3, 0.4-3, 1.1c-0.7, 0.7-1.1, 1.6-1.1, 2.5l0, 0.1h2.7 c0-0.6, 0.2-1, 0.4-1.3s0.6-0.4, 1.1-0.4c0.4, 0, 0.7, 0.1, 0.9, 0.3S35.5-15.4, 35.5-15.1z"/>
		<path fill="#42210B" d="M53.1-13.3c0-1.5-0.3-2.7-1-3.6c-0.6-0.9-1.5-1.3-2.7-1.3c-0.5, 0-0.9, 0.1-1.2, 0.3s-0.7, 0.4-0.9, 0.8v-5.1 h-2.9v15.4h2.7L47.2-8c0.3, 0.4, 0.6, 0.7, 0.9, 1s0.8, 0.3, 1.3, 0.3c1.2, 0, 2.1-0.5, 2.7-1.4c0.6-1, 1-2.2, 1-3.8V-13.3z M50.2-11.9 c0, 0.9-0.1, 1.6-0.4, 2.1C49.6-9.3, 49.2-9, 48.6-9c-0.3, 0-0.6-0.1-0.8-0.2s-0.4-0.4-0.5-0.7v-5.2c0.1-0.2, 0.3-0.4, 0.5-0.6 c0.2-0.1, 0.5-0.2, 0.8-0.2c0.5, 0, 0.9, 0.2, 1.2, 0.7c0.2, 0.5, 0.4, 1.1, 0.4, 1.9V-11.9z"/>
		<path fill="#42210B" d="M58.9-18.2c-1.4, 0-2.5, 0.5-3.3, 1.4s-1.2, 2.1-1.2, 3.5v1.6c0, 1.5, 0.4, 2.7, 1.1, 3.7s1.8, 1.4, 3.2, 1.4 c1.3, 0, 2.3-0.4, 3-1.3s1.1-2.1, 1.1-3.5v-1.8h-5.5v0c0-0.7, 0.2-1.3, 0.5-1.8s0.8-0.7, 1.5-0.7c0.5, 0, 1, 0.1, 1.3, 0.2s0.7, 0.3, 1.2, 0.6 l0.7-1.9c-0.4-0.4-0.9-0.7-1.5-0.9S59.7-18.2, 58.9-18.2z M58.7-9c-0.5, 0-0.8-0.2-1-0.6s-0.3-1-0.4-1.7h2.6v0.4 c0, 0.6-0.1, 1.1-0.3, 1.4S59.1-9, 58.7-9z"/>
		<path fill="#42210B" d="M69.4-9.5l-1.1, 0c-0.3, 0-0.6-0.1-0.8-0.2c-0.2-0.2-0.4-0.4-0.5-0.6V-18h-2.9v11.1h2.7L67-8.4l0.1, 0 c0.2, 0.5, 0.4, 1, 0.7, 1.3c0.3, 0.3, 0.7, 0.5, 1.1, 0.5c0.1, 0, 0.3, 0, 0.4, 0c0.1, 0, 0.3-0.1, 0.4-0.1L69.4-9.5z"/>
		<path fill="#42210B" d="M83.6-13.2L83.6-13.2l1.1, 6.3h2.7L85.1-18h-2.4l-1.5, 6h-0.1l-1.5-6h-2.4L74.8-6.9h2.7l1-6.3h0.1l1.5, 6.3 h1.9L83.6-13.2z"/>
		<path fill="#42210B" d="M93-18.2c-1.4, 0-2.5, 0.5-3.3, 1.4s-1.2, 2.1-1.2, 3.5v1.6c0, 1.5, 0.4, 2.7, 1.1, 3.7s1.8, 1.4, 3.2, 1.4 c1.3, 0, 2.3-0.4, 3-1.3s1.1-2.1, 1.1-3.5v-1.8h-5.5v0c0-0.7, 0.2-1.3, 0.5-1.8s0.8-0.7, 1.5-0.7c0.5, 0, 1, 0.1, 1.3, 0.2s0.7, 0.3, 1.2, 0.6 l0.7-1.9c-0.4-0.4-0.9-0.7-1.5-0.9S93.7-18.2, 93-18.2z M92.7-9c-0.5, 0-0.8-0.2-1-0.6s-0.3-1-0.4-1.7h2.6v0.4 c0, 0.6-0.1, 1.1-0.3, 1.4S93.2-9, 92.7-9z"/>
		<path fill="#42210B" d="M102.6-18.2c-1.4, 0-2.5, 0.5-3.3, 1.4S98-14.7, 98-13.3v1.6c0, 1.5, 0.4, 2.7, 1.1, 3.7s1.8, 1.4, 3.2, 1.4 c1.3, 0, 2.3-0.4, 3-1.3s1.1-2.1, 1.1-3.5v-1.8h-5.5v0c0-0.7, 0.2-1.3, 0.5-1.8s0.8-0.7, 1.5-0.7c0.5, 0, 1, 0.1, 1.3, 0.2s0.7, 0.3, 1.2, 0.6 l0.7-1.9c-0.4-0.4-0.9-0.7-1.5-0.9S103.4-18.2, 102.6-18.2z M102.3-9c-0.5, 0-0.8-0.2-1-0.6s-0.3-1-0.4-1.7h2.6v0.4 c0, 0.6-0.1, 1.1-0.3, 1.4S102.8-9, 102.3-9z"/>
		<path fill="#42210B" d="M111.3-13.4h-0.5V-18h-2.9v16h2.9v-9.1h0.5l1.9, 4.2h3.4l-2.9-5L117-18h-3.3L111.3-13.4z"/>
		<path fill="#42210B" d="M118.8-19.2h-2.1L121.1-3h2.1L118.8-19.2z"/>
		<path fill="#42210B" d="M133.1-13.3c0-1.5-0.3-2.7-1-3.6c-0.6-0.9-1.5-1.3-2.7-1.3c-0.5, 0-0.9, 0.1-1.2, 0.3 c-0.4, 0.2-0.7, 0.4-0.9, 0.8v-5.1h-2.9v15.4h2.7l0.1-1.1c0.3, 0.4, 0.6, 0.7, 0.9, 1c0.4, 0.2, 0.8, 0.3, 1.3, 0.3c1.2, 0, 2.1-0.5, 2.7-1.4 c0.6-1, 1-2.2, 1-3.8V-13.3z M130.2-11.9c0, 0.9-0.1, 1.6-0.4, 2.1c-0.2, 0.5-0.6, 0.8-1.2, 0.8c-0.3, 0-0.6-0.1-0.8-0.2s-0.4-0.4-0.5-0.7 v-5.2c0.1-0.2, 0.3-0.4, 0.5-0.6c0.2-0.1, 0.5-0.2, 0.8-0.2c0.5, 0, 0.9, 0.2, 1.2, 0.7c0.2, 0.5, 0.4, 1.1, 0.4, 1.9V-11.9z"/>
		<path fill="#42210B" d="M138.9-18.2c-1.4, 0-2.5, 0.5-3.3, 1.4s-1.2, 2.1-1.2, 3.5v1.6c0, 1.5, 0.4, 2.7, 1.1, 3.7s1.8, 1.4, 3.2, 1.4 c1.3, 0, 2.3-0.4, 3-1.3s1.1-2.1, 1.1-3.5v-1.8h-5.5v0c0-0.7, 0.2-1.3, 0.5-1.8s0.8-0.7, 1.5-0.7c0.5, 0, 1, 0.1, 1.3, 0.2s0.7, 0.3, 1.2, 0.6 l0.7-1.9c-0.4-0.4-0.9-0.7-1.5-0.9S139.7-18.2, 138.9-18.2z M138.7-9c-0.5, 0-0.8-0.2-1-0.6s-0.3-1-0.4-1.7h2.6v0.4 c0, 0.6-0.1, 1.1-0.3, 1.4S139.1-9, 138.7-9z"/>
		<path fill="#42210B" d="M149.5-9.5l-1.1, 0c-0.3, 0-0.6-0.1-0.8-0.2c-0.2-0.2-0.4-0.4-0.5-0.6V-18h-2.9v11.1h2.7l0.1-1.5l0.1, 0 c0.2, 0.5, 0.4, 1, 0.7, 1.3c0.3, 0.3, 0.7, 0.5, 1.1, 0.5c0.1, 0, 0.3, 0, 0.4, 0c0.1, 0, 0.3-0.1, 0.4-0.1L149.5-9.5z"/>
		<path fill="#42210B" d="M164.2-13.3c0-1.5-0.3-2.7-1-3.6c-0.6-0.9-1.5-1.3-2.7-1.3c-0.5, 0-0.9, 0.1-1.2, 0.3 c-0.4, 0.2-0.7, 0.4-0.9, 0.8v-5.1h-2.9v15.4h2.7l0.1-1.1c0.3, 0.4, 0.6, 0.7, 0.9, 1c0.4, 0.2, 0.8, 0.3, 1.3, 0.3c1.2, 0, 2.1-0.5, 2.7-1.4 c0.6-1, 1-2.2, 1-3.8V-13.3z M161.3-11.9c0, 0.9-0.1, 1.6-0.4, 2.1c-0.2, 0.5-0.6, 0.8-1.2, 0.8c-0.3, 0-0.6-0.1-0.8-0.2 c-0.2-0.2-0.4-0.4-0.5-0.7v-5.2c0.1-0.2, 0.3-0.4, 0.5-0.6c0.2-0.1, 0.5-0.2, 0.8-0.2c0.5, 0, 0.9, 0.2, 1.2, 0.7c0.2, 0.5, 0.4, 1.1, 0.4, 1.9 V-11.9z"/>
		<path fill="#42210B" d="M170.1-18.2c-1.4, 0-2.5, 0.5-3.3, 1.4s-1.2, 2.1-1.2, 3.5v1.6c0, 1.5, 0.4, 2.7, 1.1, 3.7c0.8, 1, 1.8, 1.4, 3.2, 1.4 c1.3, 0, 2.3-0.4, 3-1.3s1.1-2.1, 1.1-3.5v-1.8h-5.5v0c0-0.7, 0.2-1.3, 0.5-1.8c0.3-0.5, 0.8-0.7, 1.5-0.7c0.5, 0, 1, 0.1, 1.3, 0.2 s0.7, 0.3, 1.2, 0.6l0.7-1.9c-0.4-0.4-0.9-0.7-1.5-0.9C171.5-18.1, 170.8-18.2, 170.1-18.2z M169.8-9c-0.5, 0-0.8-0.2-1-0.6 s-0.3-1-0.4-1.7h2.6v0.4c0, 0.6-0.1, 1.1-0.3, 1.4S170.2-9, 169.8-9z"/>
		<path fill="#42210B" d="M180.6-9.5l-1.1, 0c-0.3, 0-0.6-0.1-0.8-0.2s-0.4-0.4-0.5-0.6V-18h-2.9v11.1h2.7l0.1-1.5l0.1, 0 c0.2, 0.5, 0.4, 1, 0.7, 1.3c0.3, 0.3, 0.7, 0.5, 1.1, 0.5c0.1, 0, 0.3, 0, 0.4, 0c0.1, 0, 0.3-0.1, 0.4-0.1L180.6-9.5z"/>
		<path fill="#42210B" d="M186.9-15.1c0, 0.3-0.1, 0.6-0.4, 0.8c-0.2, 0.2-0.7, 0.5-1.4, 0.8c-1.1, 0.4-1.9, 0.9-2.5, 1.4s-0.8, 1.2-0.8, 2.1 c0, 0.9, 0.4, 1.7, 1.1, 2.3c0.7, 0.6, 1.7, 1, 2.8, 1c1.2, 0, 2.2-0.3, 2.9-1c0.7-0.7, 1.1-1.5, 1.1-2.5l0-0.1h-2.8c0, 0.5-0.1, 0.8-0.3, 1.1 s-0.5, 0.4-0.9, 0.4c-0.3, 0-0.6-0.1-0.8-0.3s-0.3-0.5-0.3-0.8c0-0.3, 0.1-0.6, 0.3-0.8c0.2-0.2, 0.7-0.5, 1.4-0.8c1.2-0.4, 2-0.9, 2.6-1.4 c0.6-0.5, 0.8-1.3, 0.8-2.1c0-0.9-0.4-1.7-1.1-2.3s-1.7-0.9-3-0.9c-1.3, 0-2.3, 0.4-3, 1.1c-0.7, 0.7-1.1, 1.6-1.1, 2.5l0, 0.1h2.7 c0-0.6, 0.2-1, 0.4-1.3s0.6-0.4, 1.1-0.4c0.4, 0, 0.7, 0.1, 0.9, 0.3S186.9-15.4, 186.9-15.1z"/>
		<path fill="#42210B" d="M190.8-11.7c0, 1.5, 0.4, 2.7, 1.2, 3.7c0.8, 0.9, 1.9, 1.4, 3.3, 1.4s2.5-0.5, 3.3-1.4c0.8-0.9, 1.2-2.2, 1.2-3.7v-1.4 c0-1.5-0.4-2.7-1.2-3.7s-1.9-1.4-3.3-1.4c-1.4, 0-2.5, 0.5-3.3, 1.4c-0.8, 0.9-1.2, 2.2-1.2, 3.7V-11.7z M193.7-13.1 c0-0.9, 0.1-1.5, 0.4-2s0.7-0.7, 1.3-0.7c0.6, 0, 1, 0.2, 1.2, 0.7c0.2, 0.5, 0.4, 1.2, 0.4, 2v1.4c0, 0.8-0.1, 1.5-0.4, 2 c-0.2, 0.5-0.7, 0.7-1.2, 0.7c-0.6, 0-1-0.2-1.2-0.8s-0.4-1.2-0.4-2V-13.1z"/>
		<path fill="#42210B" d="M204-6.9l0.1-1.5c0.3, 0.5, 0.7, 1, 1.1, 1.3c0.4, 0.3, 0.9, 0.5, 1.5, 0.5c0.9, 0, 1.6-0.4, 2.2-1.1s0.8-1.8, 0.8-3.4 V-18h-2.9v6.9c0, 0.8-0.1, 1.3-0.3, 1.6c-0.2, 0.3-0.5, 0.5-1, 0.5c-0.3, 0-0.5-0.1-0.7-0.2c-0.2-0.1-0.4-0.3-0.6-0.6V-18h-2.9v11.1H204z "/>
	</symbol>
	<symbol id="netherlands" class="country_name" viewBox="1.1 -18.2 98.2 16.2">
		<path d="M11.6-18H8.7L4.1-8.4l-0.1, 0V-18H1.1V-3h2.9l4.6-9.5l0.1, 0V-3h2.9V-18z"/>
		<path d="M18-18.2c-1.4, 0-2.5, 0.5-3.3, 1.4s-1.2, 2.1-1.2, 3.5v1.6c0, 1.5, 0.4, 2.7, 1.1, 3.7c0.8, 1, 1.8, 1.4, 3.2, 1.4 c1.3, 0, 2.3-0.4, 3-1.3c0.7-0.9, 1.1-2.1, 1.1-3.5v-1.8h-5.5v0c0-0.7, 0.2-1.3, 0.5-1.8c0.3-0.5, 0.8-0.7, 1.5-0.7c0.5, 0, 1, 0.1, 1.3, 0.2 s0.7, 0.3, 1.2, 0.6l0.7-1.9c-0.4-0.4-0.9-0.7-1.5-0.9C19.5-18.1, 18.8-18.2, 18-18.2z M17.7-9c-0.5, 0-0.8-0.2-1-0.6s-0.3-1-0.4-1.7H19 v0.4c0, 0.6-0.1, 1.1-0.3, 1.4S18.2-9, 17.7-9z"/>
		<path d="M26.8-4.1v-2.8h1.5V-9h-1.5v-5.6c0-0.5, 0.1-0.8, 0.2-1c0.1-0.2, 0.3-0.3, 0.5-0.3c0.2, 0, 0.3, 0, 0.5, 0 c0.1, 0, 0.3, 0, 0.4, 0.1l0.2-2.2c-0.3-0.1-0.6-0.2-0.9-0.2s-0.6-0.1-1-0.1c-0.9, 0-1.7, 0.3-2.1, 0.9c-0.5, 0.6-0.7, 1.5-0.7, 2.8V-9h-1.3 v2.1h1.3v2.8H26.8z"/>
		<path d="M32.8-8.2c0.3, 0.5, 0.6, 0.9, 1, 1.1s0.8, 0.4, 1.3, 0.4c1, 0, 1.8-0.4, 2.3-1.2c0.6-0.8, 0.8-2, 0.8-3.6V-18h-2.9v6.5 c0, 0.9-0.1, 1.6-0.3, 1.9C34.8-9.2, 34.5-9, 34-9c-0.3, 0-0.5-0.1-0.7-0.2c-0.2-0.1-0.4-0.3-0.5-0.5V-18h-2.9v16h2.9V-8.2z"/>
		<path d="M44.4-18.2c-1.4, 0-2.5, 0.5-3.3, 1.4s-1.2, 2.1-1.2, 3.5v1.6c0, 1.5, 0.4, 2.7, 1.1, 3.7c0.8, 1, 1.8, 1.4, 3.2, 1.4 c1.3, 0, 2.3-0.4, 3-1.3c0.7-0.9, 1.1-2.1, 1.1-3.5v-1.8h-5.5v0c0-0.7, 0.2-1.3, 0.5-1.8c0.3-0.5, 0.8-0.7, 1.5-0.7c0.5, 0, 1, 0.1, 1.3, 0.2 s0.7, 0.3, 1.2, 0.6l0.7-1.9c-0.4-0.4-0.9-0.7-1.5-0.9C45.9-18.1, 45.2-18.2, 44.4-18.2z M44.2-9c-0.5, 0-0.8-0.2-1-0.6s-0.3-1-0.4-1.7 h2.6v0.4c0, 0.6-0.1, 1.1-0.3, 1.4S44.6-9, 44.2-9z"/>
		<path d="M55-9.5l-1.1, 0c-0.3, 0-0.6-0.1-0.8-0.2c-0.2-0.2-0.4-0.4-0.5-0.6V-18h-2.9v11.1h2.7l0.1-1.5l0.1, 0 c0.2, 0.5, 0.4, 1, 0.7, 1.3c0.3, 0.3, 0.7, 0.5, 1.1, 0.5c0.1, 0, 0.3, 0, 0.4, 0c0.1, 0, 0.3-0.1, 0.4-0.1L55-9.5z"/>
		<path d="M59.5-18h-2.9v16h2.9V-18z"/>
		<path d="M66.9-18c-0.1, 0.2-0.2, 0.4-0.2, 0.6c-0.1, 0.2-0.1, 0.4-0.1, 0.7c-0.3-0.5-0.6-0.8-1-1.1 c-0.4-0.3-0.8-0.4-1.4-0.4c-0.9, 0-1.6, 0.3-2.2, 0.9c-0.6, 0.6-0.8, 1.4-0.8, 2.4c0, 1.1, 0.4, 1.9, 1.1, 2.5c0.7, 0.6, 1.7, 0.9, 3.1, 0.9h1.1 v0.9c0, 0.5-0.1, 1-0.3, 1.2C66-9, 65.7-8.8, 65.3-8.8c-0.3, 0-0.6-0.1-0.7-0.3s-0.2-0.6-0.2-1l-2.8, 0l0, 0.1c0, 1, 0.3, 1.8, 1.1, 2.5 c0.7, 0.7, 1.7, 1, 3, 1c1.2, 0, 2.1-0.3, 2.8-1c0.7-0.7, 1.1-1.6, 1.1-2.9V-15c0-0.5, 0-1.1, 0.1-1.5c0.1-0.5, 0.2-0.9, 0.3-1.4H66.9z M65-16 c0.3, 0, 0.6, 0.1, 0.8, 0.2c0.2, 0.2, 0.4, 0.4, 0.6, 0.6v2h-1.1c-0.4, 0-0.8-0.2-1-0.5s-0.3-0.7-0.3-1.2c0-0.4, 0.1-0.7, 0.3-0.9 S64.8-16, 65-16z"/>
		<path d="M73.9-6.9L74-8.4c0.3, 0.5, 0.7, 1, 1.1, 1.3c0.4, 0.3, 0.9, 0.5, 1.5, 0.5c0.9, 0, 1.6-0.4, 2.2-1.1 c0.5-0.7, 0.8-1.8, 0.8-3.4V-18h-2.9v6.9c0, 0.8-0.1, 1.3-0.3, 1.6c-0.2, 0.3-0.5, 0.5-1, 0.5c-0.3, 0-0.5-0.1-0.7-0.2 c-0.2-0.1-0.4-0.3-0.6-0.6V-18h-2.9v11.1H73.9z"/>
		<path d="M81-12.5c0, 1.7, 0.3, 3.1, 1, 4.2s1.5, 1.6, 2.7, 1.6c0.4, 0, 0.8-0.1, 1.2-0.3c0.3-0.2, 0.7-0.5, 0.9-0.9V-2h2.9v-16 h-2.5L87-16.8c-0.3-0.5-0.6-0.8-1-1.1c-0.4-0.2-0.8-0.4-1.3-0.4c-1.2, 0-2.1, 0.5-2.7, 1.5c-0.6, 1-1, 2.3-1, 4V-12.5z M83.9-12.7 c0-1, 0.1-1.8, 0.3-2.3c0.2-0.6, 0.6-0.8, 1.2-0.8c0.3, 0, 0.6, 0.1, 0.8, 0.2s0.4, 0.3, 0.6, 0.6v5.1c-0.2, 0.3-0.3, 0.5-0.6, 0.7 C86-9.1, 85.8-9, 85.5-9c-0.5, 0-0.9-0.3-1.2-1s-0.4-1.5-0.4-2.5V-12.7z"/>
		<path d="M96.5-15.1c0, 0.3-0.1, 0.6-0.4, 0.8c-0.2, 0.2-0.7, 0.5-1.4, 0.8c-1.1, 0.4-1.9, 0.9-2.5, 1.4 c-0.6, 0.5-0.8, 1.2-0.8, 2.1c0, 0.9, 0.4, 1.7, 1.1, 2.3c0.7, 0.6, 1.7, 1, 2.8, 1c1.2, 0, 2.2-0.3, 2.9-1c0.7-0.7, 1.1-1.5, 1.1-2.5l0-0.1h-2.8 c0, 0.5-0.1, 0.8-0.3, 1.1s-0.5, 0.4-0.9, 0.4c-0.3, 0-0.6-0.1-0.8-0.3s-0.3-0.5-0.3-0.8c0-0.3, 0.1-0.6, 0.3-0.8c0.2-0.2, 0.7-0.5, 1.4-0.8 c1.2-0.4, 2-0.9, 2.6-1.4c0.6-0.5, 0.8-1.3, 0.8-2.1c0-0.9-0.4-1.7-1.1-2.3s-1.7-0.9-3-0.9c-1.3, 0-2.3, 0.4-3, 1.1 c-0.7, 0.7-1.1, 1.6-1.1, 2.5l0, 0.1h2.7c0-0.6, 0.2-1, 0.4-1.3s0.6-0.4, 1.1-0.4c0.4, 0, 0.7, 0.1, 0.9, 0.3S96.5-15.4, 96.5-15.1z"/>
	</symbol>
	<symbol id="netherlands-value" class="country_value" viewBox="4.4 -26 45.1 21.9">
		<path d="M12.5-25.7H8.3v17l-4-0.1v3l8.1, 1.5V-25.7z"/>
		<path d="M24.6-4c0.7, 0, 1.3-0.1, 1.9-0.2c0.6-0.2, 1.2-0.4, 1.8-0.7l-0.7-3.1c-0.5, 0.2-1, 0.4-1.4, 0.5s-0.9, 0.2-1.5, 0.2 c-1, 0-1.8-0.5-2.4-1.4c-0.6-0.9-0.9-2.2-0.9-3.9l0.1-0.1c0.4, 0.4, 0.9, 0.8, 1.5, 1s1.3, 0.4, 2, 0.4c1.6, 0, 2.9-0.7, 3.8-2 c0.9-1.4, 1.4-3.1, 1.4-5.2c0-2.1-0.6-3.9-1.7-5.3S25.6-26, 23.7-26c-2, 0-3.6, 0.8-4.8, 2.3s-1.8, 3.6-1.8, 6.3v4.4c0, 2.8, 0.7, 5, 2.1, 6.6 C20.6-4.8, 22.4-4, 24.6-4z M23.7-14.6c-0.6, 0-1.1-0.1-1.5-0.3c-0.4-0.2-0.7-0.5-1-0.8v-1.7c0-1.7, 0.2-2.9, 0.7-3.8 c0.4-0.9, 1-1.3, 1.8-1.3c0.6, 0, 1.1, 0.4, 1.5, 1.2c0.4, 0.8, 0.6, 1.7, 0.6, 2.9c0, 1.2-0.2, 2.1-0.6, 2.9C24.8-15, 24.3-14.6, 23.7-14.6z"/>
		<path d="M35.3-25.7h-4.1v3.8h4.1V-25.7z"/>
		<path d="M49.1-10c0-1.1-0.2-2-0.7-2.8c-0.5-0.8-1.1-1.5-2-1.9c1-0.5, 1.7-1.2, 2.3-2.1c0.5-0.9, 0.8-1.9, 0.8-3 c0-2-0.6-3.5-1.7-4.6S45.1-26, 43.3-26s-3.4, 0.5-4.5, 1.6S37-21.8, 37-19.8c0, 1.1, 0.3, 2.2, 0.8, 3c0.5, 0.9, 1.3, 1.6, 2.3, 2 c-0.8, 0.5-1.5, 1.1-2, 1.9s-0.7, 1.8-0.7, 2.8c0, 1.9, 0.5, 3.3, 1.6, 4.4S41.5-4, 43.3-4s3.2-0.5, 4.3-1.6S49.1-8.1, 49.1-10z M45.3-19.5 c0, 1-0.2, 1.7-0.6, 2.3s-0.9, 0.8-1.5, 0.8c-0.6, 0-1.1-0.3-1.5-0.8s-0.6-1.3-0.6-2.3c0-1, 0.2-1.7, 0.6-2.3s0.9-0.8, 1.5-0.8 c0.6, 0, 1.1, 0.3, 1.5, 0.8C45.1-21.3, 45.3-20.5, 45.3-19.5z M44.9-10.2c0, 0.9-0.1, 1.6-0.4, 2.1c-0.3, 0.5-0.7, 0.8-1.3, 0.8 s-1-0.2-1.2-0.7c-0.3-0.5-0.4-1.2-0.4-2.1c0-0.9, 0.1-1.6, 0.4-2.1c0.3-0.5, 0.7-0.8, 1.3-0.8s1, 0.3, 1.2, 0.8S44.9-11.1, 44.9-10.2z"/>
	</symbol>
	<symbol id="sweden" class="country_name" viewBox="0.7 -18.2 62.5 16.2">
		<path d="M7.8-14.1c0, 0.6-0.2, 1-0.5, 1.4c-0.3, 0.3-0.8, 0.7-1.6, 1C4.2-11.1, 3-10.5, 2.2-9.8C1.5-9.2, 1.1-8.2, 1.1-7 c0, 1.2, 0.5, 2.2, 1.4, 3c0.9, 0.8, 2.1, 1.2, 3.5, 1.2c1.4, 0, 2.6-0.4, 3.5-1.3C10.2-5, 10.7-6, 10.6-7.4l0-0.1H7.8c0, 0.7-0.2, 1.2-0.5, 1.7 C6.9-5.3, 6.4-5.1, 5.8-5.1c-0.6, 0-1-0.2-1.4-0.5C4.1-6, 4-6.4, 4-7c0-0.5, 0.2-0.9, 0.5-1.2c0.4-0.3, 1-0.7, 1.9-1.1 c1.4-0.5, 2.5-1.1, 3.2-1.8c0.7-0.7, 1.1-1.7, 1.1-3c0-1.3-0.4-2.3-1.3-3s-2-1.1-3.4-1.1c-1.4, 0-2.7, 0.4-3.7, 1.2c-1, 0.8-1.5, 2-1.5, 3.6 l0, 0.1h2.8c0-0.9, 0.2-1.6, 0.6-2s1-0.6, 1.8-0.6c0.6, 0, 1.1, 0.2, 1.4, 0.5C7.6-15.1, 7.8-14.6, 7.8-14.1z"/>
		<path d="M20.4-13.2L20.4-13.2l1.1, 6.3h2.7L21.9-18h-2.4L18-12h-0.1l-1.5-6h-2.4L11.6-6.9h2.7l1-6.3h0.1L17-6.9h1.9 L20.4-13.2z"/>
		<path d="M29.8-18.2c-1.4, 0-2.5, 0.5-3.3, 1.4c-0.8, 0.9-1.2, 2.1-1.2, 3.5v1.6c0, 1.5, 0.4, 2.7, 1.1, 3.7 c0.8, 1, 1.8, 1.4, 3.2, 1.4c1.3, 0, 2.3-0.4, 3-1.3c0.7-0.9, 1.1-2.1, 1.1-3.5v-1.8h-5.5v0c0-0.7, 0.2-1.3, 0.5-1.8c0.3-0.5, 0.8-0.7, 1.5-0.7 c0.5, 0, 1, 0.1, 1.3, 0.2s0.7, 0.3, 1.2, 0.6l0.7-1.9c-0.4-0.4-0.9-0.7-1.5-0.9C31.2-18.1, 30.5-18.2, 29.8-18.2z M29.5-9 c-0.5, 0-0.8-0.2-1-0.6c-0.2-0.4-0.3-1-0.4-1.7h2.6v0.4c0, 0.6-0.1, 1.1-0.3, 1.4S29.9-9, 29.5-9z"/>
		<path d="M34.7-12.5c0, 1.7, 0.3, 3.1, 1, 4.2s1.5, 1.6, 2.7, 1.6c0.4, 0, 0.8-0.1, 1.2-0.3c0.3-0.2, 0.7-0.5, 0.9-0.9V-2h2.9 v-16h-2.5l-0.2, 1.2c-0.3-0.5-0.6-0.8-1-1.1c-0.4-0.2-0.8-0.4-1.3-0.4c-1.2, 0-2.1, 0.5-2.7, 1.5c-0.6, 1-1, 2.3-1, 4V-12.5z M37.6-12.7 c0-1, 0.1-1.8, 0.3-2.3c0.2-0.6, 0.6-0.8, 1.2-0.8c0.3, 0, 0.6, 0.1, 0.8, 0.2s0.4, 0.3, 0.6, 0.6v5.1c-0.2, 0.3-0.3, 0.5-0.6, 0.7 C39.7-9.1, 39.4-9, 39.1-9c-0.5, 0-0.9-0.3-1.2-1s-0.4-1.5-0.4-2.5V-12.7z"/>
		<path d="M49.6-18.2c-1.4, 0-2.5, 0.5-3.3, 1.4c-0.8, 0.9-1.2, 2.1-1.2, 3.5v1.6c0, 1.5, 0.4, 2.7, 1.1, 3.7 c0.8, 1, 1.8, 1.4, 3.2, 1.4c1.3, 0, 2.3-0.4, 3-1.3c0.7-0.9, 1.1-2.1, 1.1-3.5v-1.8h-5.5v0c0-0.7, 0.2-1.3, 0.5-1.8c0.3-0.5, 0.8-0.7, 1.5-0.7 c0.5, 0, 1, 0.1, 1.3, 0.2s0.7, 0.3, 1.2, 0.6l0.7-1.9c-0.4-0.4-0.9-0.7-1.5-0.9C51-18.1, 50.3-18.2, 49.6-18.2z M49.3-9 c-0.5, 0-0.8-0.2-1-0.6c-0.2-0.4-0.3-1-0.4-1.7h2.6v0.4c0, 0.6-0.1, 1.1-0.3, 1.4S49.8-9, 49.3-9z"/>
		<path d="M57.5-6.9l0.1-1.5c0.3, 0.5, 0.7, 1, 1.1, 1.3c0.4, 0.3, 0.9, 0.5, 1.5, 0.5c0.9, 0, 1.6-0.4, 2.2-1.1 c0.5-0.7, 0.8-1.8, 0.8-3.4V-18h-2.9v6.9c0, 0.8-0.1, 1.3-0.3, 1.6C59.8-9.1, 59.5-9, 59-9c-0.3, 0-0.5-0.1-0.7-0.2s-0.4-0.3-0.6-0.6V-18 h-2.9v11.1H57.5z"/>
	</symbol>
	<symbol id="sweden_value" class="country_value" viewBox="14 -26 28.8 21.9">
		<path d="M19.5-22.6c0.8, 0, 1.5, 0.4, 2.1, 1.2s0.8, 1.9, 0.8, 3.4v0.8c-0.4-0.6-0.8-1-1.4-1.3C20.5-18.8, 20-19, 19.4-19 c-1.7, 0-3, 0.7-3.9, 2c-1, 1.3-1.4, 3.1-1.4, 5.4c0, 2.1, 0.6, 3.9, 1.8, 5.4C17-4.8, 18.4-4, 20.2-4c1.9, 0, 3.4-0.8, 4.6-2.3 c1.2-1.5, 1.8-3.6, 1.8-6.3v-5.2c0-2.5-0.7-4.5-2-6c-1.3-1.5-3-2.2-5.1-2.2c-0.6, 0-1.2, 0.1-1.9, 0.2s-1.3, 0.4-1.9, 0.7l0.5, 3.1 c0.5-0.2, 1.1-0.4, 1.6-0.5C18.3-22.6, 18.9-22.6, 19.5-22.6z M20.2-15.8c0.5, 0, 0.9, 0.1, 1.3, 0.4c0.4, 0.2, 0.7, 0.6, 0.9, 1v2.4 c0, 1.5-0.2, 2.7-0.6, 3.5s-0.9, 1.2-1.5, 1.1h-0.1c-0.6, 0-1.1-0.4-1.5-1.2c-0.4-0.8-0.6-1.8-0.6-3c0-1.3, 0.2-2.3, 0.5-3.1 S19.5-15.8, 20.2-15.8z"/>
		<path d="M32.3-25.7h-4.1v3.8h4.1V-25.7z"/>
		<path d="M42.8-25.7h-4.2v17l-4-0.1v3l8.1, 1.5V-25.7z"/>
	</symbol>
	<rect x="0" fill="#FBB03B" width="300" height="300"/>

	<g id="infographic_large">
		<use xlink:href="#art_person" width="20.6" height="58" id="XMLID_2_" x="0" y="-58" transform="matrix(1 0 0 -1 38.8294 205.0549)" overflow="visible"/>
		<use xlink:href="#art_person" width="20.6" height="58" x="0" y="-58" transform="matrix(1 0 0 -1 100.2691 205.0549)" overflow="visible"/>
		<use xlink:href="#art_person" width="20.6" height="58" x="0" y="-58" transform="matrix(1 0 0 -1 154.4424 205.0549)" overflow="visible"/>
		<use xlink:href="#art_person" width="20.6" height="58" x="0" y="-58" transform="matrix(1 0 0 -1 202.5919 205.0549)" overflow="visible"/>
		<use xlink:href="#art_person" width="20.6" height="58" x="0" y="-58" transform="matrix(1 0 0 -1 250.1232 205.0549)" overflow="visible"/>
		<use xlink:href="#art_coffeecup" width="99.2" height="178" y="-178" transform="matrix(0.635 0 0 -0.635 17.5379 86.1217)" overflow="visible"/>
		<use xlink:href="#art_coffeecup" width="99.2" height="178" y="-178" transform="matrix(0.5552 0 0 -0.5552 81.5379 100.2989)" overflow="visible"/>
		<use xlink:href="#art_coffeecup" width="99.2" height="178" y="-178" transform="matrix(0.4674 0 0 -0.4674 140.5379 115.8817)" overflow="visible"/>
		<use xlink:href="#art_coffeecup" width="99.2" height="178" y="-178" transform="matrix(0.4371 0 0 -0.4371 190.8712 121.2524)" overflow="visible"/>
		<use xlink:href="#art_coffeecup" width="99.2" height="178" y="-178" transform="matrix(0.4371 0 0 -0.4371 238.8712 121.2524)" overflow="visible"/>
		<rect x="0.2" y="26.6" fill="#F15A24" width="299.6" height="30.8"/>
		<use xlink:href="#heading_b" width="268.5" height="29.6" id="XMLID_5_" x="1.6" y="-32.1" transform="matrix(0.8353 0 0 -0.8353 35.9979 27.4162)" overflow="visible"/>
		<use xlink:href="#heading_c" width="209.2" height="20.3" x="0." y="-22.2" transform="matrix(1 0 0 -1 43.6653 55.8213)" overflow="visible"/>
		<use xlink:href="#heading_a" width="82" height="17.6" id="XMLID_4_" x="4" y="-20.8" transform="matrix(0.7399 0 0 -0.7399 112.3076 7.652)" overflow="visible"/>
		<use xlink:href="#netherlands" width="98.2" height="16.2" x="1.1" y="-18.2" transform="matrix(0.5171 0 0 -0.5171 23.2237 266.2647)" overflow="visible"/>
		<use xlink:href="#finland" width="58.8" height="16.2" x="1.1" y="-18.2" transform="matrix(0.5171 0 0 -0.5171 94.8401 266.2647)" overflow="visible"/>
		<use xlink:href="#sweden" width="62.5" height="16.2" x="0.7" y="-18.2" transform="matrix(0.5171 0 0 -0.5171 147.9233 266.2647)" overflow="visible"/>
		<use xlink:href="#denmark" width="72.4" height="16.2" x="1.1" y="-18.2" transform="matrix(0.5171 0 0 -0.5171 193.6817 266.2647)" overflow="visible"/>
		<use xlink:href="#germany" width="72.2" height="19.6" x="0.8" y="-22.4" transform="matrix(0.5171 0 0 -0.5171 240.5902 266.2647)" overflow="visible"/>
		<use xlink:href="#netherlands-value" width="45.1" height="21.9" x="4.4" y="-26" transform="matrix(0.8156 0 0 -0.8156 26.432 129.8632)" overflow="visible"/>
		<use xlink:href="#finland_value" width="45.5" height="21.9" x="4.9" y="-26" transform="matrix(0.8156 0 0 -0.8156 85.5894 138.0018)" overflow="visible"/>
		<use xlink:href="#sweden_value" width="28.8" height="21.9" x="14" y="-26" transform="matrix(0.8156 0 0 -0.8156 140.1904 143.8483)" overflow="visible"/>
		<use xlink:href="#denmark_value" width="32.4" height="21.9" x="6.3" y="-26" transform="matrix(0.8156 0 0 -0.8156 195.5511 147.5396)" overflow="visible"/>
		<use xlink:href="#germany_value" width="32.7" height="21.9" x="6" y="-26" transform="matrix(0.8156 0 0 -0.8156 243.1807 147.5396)" overflow="visible"/>
	</g>
	<g id="infographic_medium">
		<use xlink:href="#art_coffeecup" width="99.2" height="178" y="-178" transform="matrix(0.9227 0 0 -0.9227 20.1685 104.237)" overflow="visible"/>
		<use xlink:href="#netherlands" width="98.2" height="16.2" x="1.1" y="-18.2" transform="matrix(1 0 0 -1 123.7744 117.1064)" overflow="visible"/>
		<use xlink:href="#finland" width="58.8" height="16.2" x="1.1" y="-18.2" transform="matrix(1 0 0 -1 124.3994 149.0342)" overflow="visible"/>
		<use xlink:href="#sweden" width="62.5" height="16.2" id="XMLID_8_" x="0.7" y="-18.2" transform="matrix(1 0 0 -1 124.3994 182.96)" overflow="visible"/>
		<use xlink:href="#denmark" width="72.4" height="16.2" x="1.1" y="-18.2" transform="matrix(1 0 0 -1 124.3994 216.041)" overflow="visible"/>
		<use xlink:href="#germany" width="72.2" height="19.6" x="0.8" y="-22.4" transform="matrix(1 0 0 -1 124.3994 249.6494)" overflow="visible"/>
		<use xlink:href="#netherlands-value" width="45.1" height="21.9" x="4.4" y="-26" transform="matrix(1 0 0 -1 232.3741 106.9683)" overflow="visible"/>
		<use xlink:href="#finland_value" width="45.5" height="21.9" x="4.9" y="-26" transform="matrix(1 0 0 -1 231.8741 140.6697)" overflow="visible"/>
		<use xlink:href="#sweden_value" width="28.8" height="21.9" x="14" y="-26" transform="matrix(1 0 0 -1 235.3741 174.3711)" overflow="visible"/>
		<use xlink:href="#denmark_value" width="32.4" height="21.9" x="6.3" y="-26" transform="matrix(1 0 0 -1 243.1856 208.0723)" overflow="visible"/>
		<use xlink:href="#germany_value" width="32.7" height="21.9" x="6" y="-26" transform="matrix(1 0 0 -1 243.4619 241.7744)" overflow="visible"/>
		<use xlink:href="#heading_bar" width="299.6" height="30.8" x="0" y="-30.8" transform="matrix(1 0 0 -1 -9.509677e-09 27.0703)" overflow="visible"/>
		<use xlink:href="#heading_b" width="268.5" height="29.6" id="XMLID_7_" x="1.6" y="-32.1" transform="matrix(0.8353 0 0 -0.8353 38.7944 28.162)" overflow="visible"/>
		<use xlink:href="#heading_c" width="209.2" height="20.3" x="0.5" y="-22.2" transform="matrix(1 0 0 -1 46.4617 57.8691)" overflow="visible"/>
		<use xlink:href="#heading_a" width="82" height="17.6" id="XMLID_6_" x="0.3" y="-20.8" transform="matrix(0.7399 0 0 -0.7399 115.104 8.152)" overflow="visible"/>
	</g>
	<g id="infographic_small">
		<rect x="10.8" y="99.2" fill="#F15A24" width="281.9" height="29.9"/>
		<rect x="10.8" y="139.5" fill="#F15A24" width="218.5" height="29.9"/>
		<rect x="10.8" y="179.8" fill="#F15A24" width="160.6" height="29.9"/>
		<rect x="10.8" y="220" fill="#F15A24" width="144.5" height="29.9"/>
		<rect x="10.8" y="260.3" fill="#F15A24" width="144.5" height="29.9"/>
		<use xlink:href="#heading_b" width="268.5" height="29.6" id="XMLID_3_" x="1.6" y="-32.1" transform="matrix(1.0354 0 0 -1.0354 10.6646 33.5397)" overflow="visible"/>
		<use xlink:href="#heading_c" width="209.2" height="20.3" x="0.5" y="-22.2" transform="matrix(1.1029 0 0 -1.1029 11.7 64.518)" overflow="visible"/>
		<use xlink:href="#heading_a" width="82" height="17.6" id="XMLID_1_" x="0.3" y="-20.8" transform="matrix(1.0354 0 0 -1.0354 10.6646 8.7067)" overflow="visible"/>
		<use xlink:href="#art_coffeecup" width="99.2" height="178" y="-178" transform="matrix(0.4686 0 0 -0.4686 182.7136 194.479)" overflow="visible"/>
		<use xlink:href="#art_person" width="20.6" height="58" x="0" y="-58" transform="matrix(2.3502 0 0 -2.3502 236.8951 141.3925)" overflow="visible"/>
		<use xlink:href="#netherlands" width="98.2" height="16.2" x="1.1" y="-18.2" transform="matrix(1.1215 0 0 -1.1215 15.7683 102.5868)" overflow="visible"/>
		<use xlink:href="#finland" width="58.8" height="16.2" x="1.1" y="-18.2" transform="matrix(1.1215 0 0 -1.1215 15.7685 143.5292)" overflow="visible"/>
		<use xlink:href="#sweden" width="62.5" height="16.2" x="0.7" y="-18.2" transform="matrix(1.1215 0 0 -1.1215 15.7685 182.8426)" overflow="visible"/>
		<use xlink:href="#denmark" width="72.4" height="16.2" x="1.1" y="-18.2" transform="matrix(1.1215 0 0 -1.1215 15.7685 223.2405)" overflow="visible"/>
		<use xlink:href="#germany" width="72.2" height="19.6" x="0.8" y="-22.4" transform="matrix(1.1215 0 0 -1.1215 15.7685 263.6568)" overflow="visible"/>
		<use xlink:href="#netherlands-value" width="45.1" height="21.9" x="4.4" y="-26" transform="matrix(1.0361 0 0 -1.0361 234.8704 98.1309)" overflow="visible"/>
		<use xlink:href="#finland_value" width="45.5" height="21.9" x="4.9" y="-26" transform="matrix(1.0361 0 0 -1.0361 173.388 138.3318)" overflow="visible"/>
		<use xlink:href="#sweden_value" width="28.8" height="21.9" x="14" y="-26" transform="matrix(1.0361 0 0 -1.0361 120.2509 178.5328)" overflow="visible"/>
		<use xlink:href="#denmark_value" width="32.4" height="21.9" x="6.3" y="-26" transform="matrix(1.0361 0 0 -1.0361 110.3318 219.7355)" overflow="visible"/>
		<use xlink:href="#germany_value" width="32.7" height="21.9" x="6" y="-26" transform="matrix(1.0361 0 0 -1.0361 109.7871 259.7808)" overflow="visible"/>
	</g>
</svg>
