<?xml version="1.0" encoding="utf-8"?>
<svg version="1.1" xmlns="http://www.w3.org/2000/svg" xmlns:xlink="http://www.w3.org/1999/xlink" x="0px" y="0px" viewBox="0 0 30 120" style="enable-background:new 0 0 30 120;" xml:space="preserve">
	<style type="text/css"><![CDATA[
		path { fill: #fff; }
		g path { fill: #ffd34c; }
	]]></style>
	<path d="M26.9, 28.5l-23.8, 0l0-23.8l23.8, 0L26.9, 28.5z M6.6, 25l16.8, 0l0-16.8l-16.8, 0L6.6, 25z" />
	<path d="M6.6, 38.1H17c0.8-1.1, 1.7-2.3, 2.6-3.5l-16.5, 0l0, 8.6l3.5-2L6.6, 38.1z" />
	<path d="M23.5, 55l-8, 0l-0.7, 1.3L13.6, 55h-7l0-6.7c-1.2-0.9-2.4-1.5-3.2-1.8l-0.2-0.1l0, 12l23.8, 0l0-16.9c-1, 0.7-2.2, 1.7-3.5, 3 L23.5, 55z" />
	<path d="M15, 89.3c-7, 0-12.7-5.7-12.7-12.7S8, 63.9, 15, 63.9s12.7, 5.7, 12.7, 12.7S22, 89.3, 15, 89.3z M15, 67.9c-4.8, 0-8.7, 3.9-8.7, 8.7 s3.9, 8.7, 8.7, 8.7s8.7-3.9, 8.7-8.7S19.8, 67.9, 15, 67.9z" />
	<path d="M12.8, 98.2c1.2-1.6, 2-3.1, 2.2-4.3c-7, 0-12.6, 5.7-12.7, 12.7c1.2-0.2, 2.7-1, 4.3-2.2C7.4, 101.4, 9.8, 99, 12.8, 98.2z" />
	<path d="M27.7, 106.7c-1.2, 0.2-2.7, 1-4.3, 2.2c-0.8, 3-3.2, 5.3-6.1, 6.1c-1.2, 1.6-2, 3.1-2.2, 4.3C22.1, 119.3, 27.7, 113.6, 27.7, 106.7z" />
	<path d="M23.4, 104.3c1.6, 1.2, 3.1, 2, 4.3, 2.2c0-7-5.7-12.6-12.7-12.7c0.2, 1.2, 1, 2.7, 2.2, 4.3C20.3, 99, 22.6, 101.4, 23.4, 104.3z" />
	<path d="M6.6, 108.9c-1.6-1.2-3.1-2-4.3-2.2c0, 7, 5.7, 12.6, 12.7, 12.7c-0.2-1.2-1-2.7-2.2-4.3C9.8, 114.2, 7.4, 111.9, 6.6, 108.9z" />
	<g>
		<path d="M10.7, 40.8L14, 47c0, 0, 5.3-12.6, 13.7-16.8c-0.2, 3-1, 5.6, 0.4, 8.8c-3.7, 0.8-11.3, 9.8-13.7, 14.2 C10.9, 49, 6.8, 45.8, 4, 44.8L10.7, 40.8z" />
		<path d="M15, 115.2c0-2.5-6.1-8.6-8.6-8.6c2.5, 0, 8.6-6.1, 8.6-8.6c0, 2.5, 6.1, 8.6, 8.6, 8.6C21.1, 106.6, 15, 112.7, 15, 115.2z" />
	</g>
</svg>